<svg width="423" height="234" viewBox="0 0 423 234" fill="none" xmlns="http://www.w3.org/2000/svg">
<g filter="url(#filter0_d_4_85)">
<path d="M302.048 175.592L306.696 183.824C306.752 183.992 306.808 184.104 306.808 184.272C306.808 184.664 306.584 185.056 306.192 185.336C296.168 193.288 284.856 199.168 273.712 202.416C273.544 202.472 273.376 202.528 273.208 202.528C272.816 202.528 272.424 202.304 272.2 201.912L266.88 192.504C266.768 192.336 266.712 192.168 266.712 192C266.712 191.552 266.992 191.216 267.384 190.992C276.176 187.576 293.592 179.456 300.536 175.088C300.704 175.032 300.872 174.976 301.04 174.976C301.432 174.976 301.824 175.2 302.048 175.592ZM276.288 179.064L267.048 183.152C266.544 183.376 266.208 183.488 265.928 183.488C265.424 183.488 265.256 183.152 264.92 182.704C258.76 173.352 258.368 172.456 258.368 171.84C258.368 171.504 258.48 171.224 258.816 171.112L266.656 167.808C267.048 167.64 267.496 167.528 267.888 167.528C268.28 167.528 268.672 167.64 269.064 167.92C271.136 169.656 277.072 175.48 277.072 177.944C277.072 178.392 276.848 178.784 276.288 179.064ZM289.896 164.448L282.392 170.888C281.832 171.392 281.496 171.56 281.216 171.56C280.88 171.56 280.6 171.336 280.264 171.056C271.528 163.72 270.912 162.88 270.912 162.152C270.912 161.928 270.968 161.704 271.192 161.536L277.576 156.328C278.08 155.936 278.584 155.6 279.144 155.6C280.376 155.6 290.4 161.032 290.4 163.552C290.4 163.832 290.232 164.168 289.896 164.448ZM308.6 158.064L305.52 160.752C305.24 160.976 304.96 161.088 304.736 161.088C304.344 161.088 304.008 160.864 303.728 160.584L300.144 156.72C299.864 156.44 299.752 156.16 299.752 155.936C299.752 155.544 300.144 155.264 300.368 155.096L303.224 152.912C303.504 152.688 303.784 152.632 304.064 152.632C304.512 152.632 304.904 152.856 305.296 153.136L308.544 156.104L308.712 156.216C309.048 156.496 309.16 156.776 309.16 157.056C309.16 157.392 308.936 157.728 308.6 158.064ZM298.128 160.08L294.656 160.304H294.264C293.48 160.304 293.088 160.024 292.92 159.464L291.744 155.152C291.688 154.872 291.632 154.704 291.632 154.48C291.632 153.808 292.08 153.584 292.696 153.472L296.784 152.968H296.952C297.736 152.968 298.296 153.64 298.464 154.312L299.416 158.512C299.472 158.68 299.472 158.848 299.472 159.016C299.472 159.632 299.08 159.968 298.128 160.08Z" fill="#8FD14F"/>
<path d="M338.112 198.248L331.168 198.752H331.056C330.384 198.752 329.936 198.192 329.88 197.576C329.208 193.152 328.648 184.864 328.312 177.304L322.544 176.912C321.872 176.856 321.48 176.296 321.48 175.68L321.872 168.68C321.928 168.064 322.432 167.616 322.992 167.616H323.104L327.976 168.008C327.92 165.824 327.92 163.976 327.92 162.8C327.976 162.24 328.2 161.568 328.872 161.568C330.16 161.568 334.416 161.68 336.488 161.68C337.384 161.68 337.888 162.52 337.944 163.08C337.944 163.304 338.056 165.6 338.224 168.904L350.824 169.912C353.008 170.136 355.92 171.144 355.92 174.56C355.92 181.392 347.8 187.664 345.896 187.664C345.112 187.664 344.496 187.048 342.704 185.256C341.696 184.416 340.744 183.576 340.744 182.904C340.744 182.512 340.968 182.12 341.248 181.84C342.312 180.832 343.264 179.04 343.264 178.592C343.264 178.368 343.152 178.368 342.984 178.368L338.616 178.032C338.952 187.104 339.344 196.96 339.344 196.96C339.344 197.632 338.784 198.192 338.112 198.248Z" fill="#8FD14F"/>
<path d="M384.616 202.528H373.584C372.968 202.528 372.464 202.08 372.464 201.464V154.256C372.464 153.64 372.968 153.136 373.584 153.136H384.616C385.232 153.136 385.68 153.64 385.68 154.256V173.464L388.592 169.432C388.984 168.872 389.488 168.704 390.048 168.704C391.728 168.704 400.632 170.944 405.504 173.576C406.12 173.912 406.4 174.304 406.4 174.752C406.4 175.256 406.176 175.592 400.072 185.56C399.792 186.008 399.4 186.176 399.008 186.176C398.616 186.176 398.224 186.008 397.944 185.84C395.144 184.104 389.376 181.024 385.68 179.232V201.464C385.68 202.08 385.232 202.528 384.616 202.528ZM408.36 162.04L405.112 164.896C404.832 165.176 404.496 165.288 404.216 165.288C403.824 165.288 403.488 165.064 403.152 164.728L399.344 160.64C399.064 160.304 398.952 160.08 398.952 159.8C398.952 159.408 399.288 159.072 399.568 158.904L402.648 156.552C402.928 156.328 403.264 156.272 403.544 156.272C403.992 156.272 404.44 156.496 404.832 156.832L408.36 159.968L408.528 160.08C408.864 160.416 408.976 160.696 408.976 160.976C408.976 161.312 408.808 161.704 408.36 162.04ZM397.216 164.224L393.464 164.504H393.184C392.288 164.504 391.84 164.224 391.616 163.552L390.328 158.904C390.272 158.624 390.216 158.4 390.216 158.232C390.216 157.504 390.664 157.28 391.336 157.168L395.76 156.608H395.928C396.768 156.608 397.328 157.336 397.552 158.064L398.56 162.6C398.616 162.768 398.672 162.992 398.672 163.104C398.672 163.776 398.224 164.112 397.216 164.224Z" fill="#8FD14F"/>
<path d="M1.164 133.224L4.074 123.33C4.559 121.778 6.014 120.905 7.275 120.905H7.663C8.439 121.002 9.118 121.002 9.894 121.002C16.102 121.002 21.534 118.092 22.795 112.951C25.123 103.154 26.481 78.71 26.772 59.601C26.869 57.079 28.13 56.691 29.391 56.691C32.204 56.691 48.5 57.467 49.955 57.564C51.604 57.758 52.671 59.019 52.671 60.474V60.668C51.41 79.389 50.925 100.632 47.627 116.346C44.038 133.903 30.555 140.014 17.848 140.014C12.319 140.014 6.887 138.85 2.522 136.91C1.358 136.425 1.067 135.164 1.067 134.194C1.067 133.806 1.067 133.515 1.164 133.224Z" fill="#00712D"/>
<path d="M129.228 125.367L123.214 137.104C122.341 138.753 121.371 139.626 120.11 139.626C119.14 139.626 112.35 138.074 107.5 133.515C102.456 136.134 97.218 137.298 92.271 137.298C76.072 137.298 62.104 124.882 62.104 109.265C62.104 97.625 70.349 80.844 89.555 80.844C94.405 80.844 99.158 81.911 102.941 83.56C103.523 82.881 104.396 82.59 105.56 82.59H106.045L122.826 84.045C125.348 84.239 126.027 85.5 126.027 86.664V87.149C124.669 95.976 123.311 104.415 123.311 110.817C123.311 116.637 124.378 120.808 127.482 122.457C128.452 122.942 129.519 123.524 129.519 124.494C129.519 124.688 129.422 124.979 129.228 125.367ZM100.807 118.286C100.516 115.764 100.322 113.048 100.322 110.041C100.322 107.519 100.419 104.9 100.613 101.99C99.449 100.05 96.83 98.692 94.017 98.692C87.906 98.692 84.511 104.609 84.511 109.556C84.511 114.988 88.294 119.644 94.599 119.644C96.442 119.644 98.576 119.256 100.807 118.286Z" fill="#00983D"/>
<path d="M202.974 124.3L197.736 136.425C196.96 138.268 195.99 139.238 194.535 139.238C194.535 139.238 186.193 138.365 180.761 132.933C175.329 135.94 169.703 137.298 164.368 137.298C148.169 137.298 134.298 124.882 134.298 109.265C134.298 97.431 142.543 80.844 161.749 80.844C165.92 80.844 170.091 81.717 173.583 82.978L175.329 56.982C175.426 55.333 176.978 54.363 178.918 54.363L195.699 54.654C198.415 54.654 199.191 55.915 199.191 57.273V57.564C198.997 58.825 195.893 99.274 195.893 105.967C195.893 113.921 197.057 119.838 201.034 121.584C202.101 122.069 203.168 122.554 203.168 123.427C203.168 123.718 203.168 124.009 202.974 124.3ZM173.874 117.801C173.195 113.436 172.807 108.295 172.807 102.087C171.74 100.147 169.024 98.789 166.114 98.789C160.294 98.789 156.608 104.124 156.608 109.556C156.608 114.988 160.391 119.644 166.599 119.644C168.733 119.644 171.158 119.062 173.874 117.801Z" fill="#00712D"/>
<path d="M232.615 137.492H213.118C212.051 137.492 211.178 136.619 211.178 135.552V56.303C211.178 55.139 212.051 54.266 213.118 54.266H232.615C233.682 54.266 234.555 55.139 234.555 56.303V135.552C234.555 136.619 233.682 137.492 232.615 137.492Z" fill="#00983D"/>
<path d="M271.943 137.104L252.543 138.074H252.349C251.282 138.074 250.506 137.201 250.409 136.134L247.984 88.895C247.984 87.731 248.76 86.858 249.924 86.761L269.324 85.791H269.518C270.488 85.791 271.361 86.664 271.361 87.634L273.786 134.97V135.164C273.786 136.134 272.913 137.007 271.943 137.104ZM272.913 69.883C272.913 77.74 266.511 84.142 258.654 84.142C250.7 84.142 244.298 77.74 244.298 69.883C244.298 61.929 250.7 55.527 258.654 55.527C266.511 55.527 272.913 61.929 272.913 69.883Z" fill="#00712D"/>
<path d="M344.475 109.75C344.475 128.665 325.269 139.238 311.495 139.238C295.684 139.238 281.813 127.792 281.813 110.72C281.813 90.738 296.751 80.359 313.823 80.359C335.26 80.359 344.475 97.14 344.475 109.75ZM313.823 120.711C320.71 120.711 323.814 115.085 323.814 109.556C323.814 107.713 323.426 98.304 313.532 98.304C305.384 98.304 303.056 105.191 303.056 109.556C303.056 116.249 308.294 120.711 313.823 120.711Z" fill="#00983D"/>
<path d="M414.803 111.302V114.503C414.803 119.935 416.064 124.3 420.041 127.986C420.623 128.471 421.593 129.441 421.593 130.508C421.593 131.09 421.302 131.672 420.623 132.157C420.623 132.351 411.02 139.238 411.02 139.238C410.05 140.014 409.08 140.305 408.207 140.305C406.461 140.305 390.941 135.164 390.941 117.898V114.6C390.941 104.415 385.994 100.147 378.913 99.759L377.07 134.97C377.07 135.94 376.197 136.813 375.227 136.813H375.033L355.633 135.843C354.469 135.746 353.693 134.873 353.693 133.709L356.312 83.269C356.409 82.202 357.282 81.329 358.252 81.329H358.446L369.31 81.911C373.093 81.135 376.682 80.747 380.174 80.747C399.865 80.747 414.803 92.775 414.803 111.302Z" fill="#00712D"/>
</g>
<defs>
<filter id="filter0_d_4_85" x="1.067" y="54.266" width="420.526" height="152.262" filterUnits="userSpaceOnUse" color-interpolation-filters="sRGB">
<feFlood flood-opacity="0" result="BackgroundImageFix"/>
<feColorMatrix in="SourceAlpha" type="matrix" values="0 0 0 0 0 0 0 0 0 0 0 0 0 0 0 0 0 0 127 0" result="hardAlpha"/>
<feOffset dy="4"/>
<feComposite in2="hardAlpha" operator="out"/>
<feColorMatrix type="matrix" values="0 0 0 0 0.0256186 0 0 0 0 0.291907 0 0 0 0 0.131663 0 0 0 1 0"/>
<feBlend mode="normal" in2="BackgroundImageFix" result="effect1_dropShadow_4_85"/>
<feBlend mode="normal" in="SourceGraphic" in2="effect1_dropShadow_4_85" result="shape"/>
</filter>
</defs>
</svg>
